<svg width="171" height="27" viewBox="0 0 171 27" fill="none" xmlns="http://www.w3.org/2000/svg">
<g clip-path="url(#clip0_61_3)">
<path d="M26.6 8C26.6 7.8 26.6 7.5 26.6 7.3C26.6 3.4 23.2 0.300003 19.1 0.300003C17 0.300003 15.1 1.1 13.7 2.4C13.2 2.3 12.7 2.2 12.1 2.2C9.59999 2.2 7.39999 3.8 6.49999 6.1C2.99999 7.1 0.399994 9.7 0.399994 12.7C0.399994 16.6 4.49999 19.7 9.59999 19.7C10.5 19.7 11.4 19.6 12.2 19.4C13.7 19.8 15.4 20 17.2 20C24.4 20 30.2 16.8 30.2 12.9C30.2 11 28.8 9.3 26.6 8ZM21.2 9.2L19.2 11.2C19 11.4 18.9 11.7 19 11.9L19.5 14.7C19.6 15.4 18.9 15.9 18.3 15.6L15.8 14.3C15.6 14.2 15.3 14.2 15 14.3L12.5 15.6C11.9 15.9 11.2 15.4 11.3 14.7L11.8 11.9C11.8 11.6 11.8 11.3 11.6 11.2L9.59999 9.2C8.89999 8.7 9.19999 7.8 9.89999 7.7L12.7 7.3C13 7.3 13.2 7.1 13.3 6.8L14.5 4.3C14.8 3.7 15.7 3.7 16 4.3L17.2 6.8C17.3 7 17.6 7.2 17.8 7.3L20.6 7.7C21.4 7.8 21.7 8.7 21.2 9.2Z" fill="#DCBEB1"/>
<path d="M55.2 26.3V22.4L52.8 24.8H38.7V10.8H47.5V6.60001H38.7V1.90001H53V15.5H44.2V20H55.2V1.60001H60.7V10.2H64V15.2H60.6V26.3H55.2Z" fill="#4E3F3A"/>
<path d="M80.6 18.8C80.6 23.1 77.1 25.4 72.9 25.4C68.7 25.4 65.2 23 65.2 18.8V8.30001C65.2 4.10001 68.7 1.70001 72.9 1.70001C77.1 1.70001 80.6 4.00001 80.6 8.30001V18.8ZM75.2 8.40001C75.2 7.20001 74.2 6.50001 73 6.50001C71.8 6.50001 70.8 7.20001 70.8 8.40001V18.6C70.8 19.8 71.8 20.5 73 20.5C74.2 20.5 75.2 19.8 75.2 18.6V8.40001ZM82.9 26.3V1.60001H88.4V26.3H82.9Z" fill="#4E3F3A"/>
<path d="M105.9 14.9C103.8 13.8 101.9 12.6 100.1 11.4C98.3 12.7 95.5 14.2 93.3 15.1L90.9 11.2C92.9 10.2 94.9 9.10001 96.4 8.00001C97 7.40001 97 7.20001 97 6.50001H92.1V1.90001H107.8V6.50001H102.9C102.9 7.00001 102.9 7.50001 103.4 7.80001C104.9 9.00001 106.8 10.3 108.6 11.2L105.9 14.9ZM98.6 26.7C94.7 26.7 93.1 24.1 93.1 21.1C93.1 18.1 94.8 15.5 98.7 15.5H110.2C114.1 15.5 115.8 18.1 115.8 21.1C115.8 24.1 114 26.7 110.1 26.7H98.6ZM99.9 20.1C99 20.1 98.5 20.5 98.5 21.2C98.5 21.8 99 22.2 99.9 22.2H108.9C109.8 22.2 110.3 21.8 110.3 21.2C110.3 20.6 109.8 20.1 108.9 20.1H99.9ZM109.8 14.9V1.60001H115.3V14.9H109.8Z" fill="#4E3F3A"/>
<path d="M139.6 18.6C136.5 16.6 133.5 14.5 130.3 11.8C127.1 14.5 124.1 16.6 121 18.6L118 14.6C120.5 12.8 123.8 10.3 126.1 7.90001C127 7.00001 127.3 6.30001 127.3 5.10001V2.10001H133.4V5.30001C133.4 6.50001 133.7 7.20001 134.6 8.10001C136.9 10.4 140.2 12.9 142.7 14.8L139.6 18.6ZM118 25.4V20.7H142.6V25.4H118Z" fill="#4E3F3A"/>
<path d="M161.3 26.3V22.3L158.9 24.7H144.8V1.90001H159.4V6.60001H150.3V10.9H158.7V15.6H150.3V20H161.3V1.60001H166.8V10.2H170.2V15.2H166.8V26.3H161.3Z" fill="#4E3F3A"/>
<path d="M23.2 0.200004L23.8 1.4C23.9 1.5 24 1.6 24.1 1.6L25.4 1.8C25.7 1.8 25.9 2.3 25.6 2.5L24.6 3.4C24.5 3.5 24.5 3.6 24.5 3.8L24.7 5.1C24.8 5.4 24.4 5.7 24.1 5.5L23.1 5C23 4.9 22.8 4.9 22.7 5L21.5 5.6C21.2 5.8 20.9 5.5 20.9 5.2L21.1 3.9C21.1 3.8 21.1 3.6 21 3.5L20 2.6C19.8 2.4 19.9 2 20.2 1.9L21.5 1.7C21.6 1.7 21.7 1.6 21.8 1.5L22.4 0.300004C22.7 -0.0999959 23.1 -0.0999959 23.2 0.200004Z" fill="#4E3F3A"/>
<path d="M5.40001 4.9L6.00001 6.1C6.00001 6.2 6.10001 6.3 6.30001 6.3L7.60001 6.5C7.90001 6.5 8.10001 7 7.80001 7.2L6.80001 8.1C6.80001 8.2 6.70001 8.4 6.70001 8.5L7.00001 9.8C7.10001 10.1 6.70001 10.4 6.40001 10.2L5.20001 9.6C5.10001 9.5 4.90001 9.5 4.80001 9.6L3.60001 10.2C3.30001 10.4 3.00001 10.2 3.00001 9.8L3.20001 8.5C3.20001 8.4 3.20001 8.2 3.10001 8.1L2.10001 7.2C1.90001 7 2.10001 6.5 2.40001 6.5L3.70001 6.3C3.90001 6.3 4.00001 6.2 4.00001 6.1L4.60001 4.9C4.80001 4.6 5.20001 4.6 5.40001 4.9Z" fill="#4E3F3A"/>
<path d="M31.4 21.6H31C30.7 21.6 30.5 21.4 30.5 21.1V18.8C30.5 18.5 30.3 18.3 30 18.3H18.7C17.9 18.3 17 19.4 16.5 20.1V19.9C16.5 18.9 17.2 18 18.2 17.8L30.2 14.1C30.4 14 30.5 13.9 30.4 13.7C30.3 13.5 30.2 13.4 30 13.5L18 17.2C17.2 17.3 16.4 17.9 16.1 18.6C15.7 17.9 15 17.3 14.1 17.2L1.9 16.8C1.7 16.8 1.6 16.9 1.6 17.1C1.6 17.3 1.7 17.4 1.9 17.4L14.1 17.8C15.1 18 15.8 18.8 15.8 19.9V20.5C15.4 19.8 14.3 18.4 13.3 18.3H1.9C1.6 18.3 1.4 18.5 1.4 18.8V21.1C1.4 21.4 1.2 21.6 0.9 21.6H0.5C0.2 21.6 0 21.8 0 22.1V23.1C0 23.4 0.2 23.6 0.5 23.6H11.9C11.9 23.6 11.9 23.6 12 23.6C12.3 23.6 14.6 23.4 15 26.5C15 26.8 15.2 27 15.5 27C15.8 27 16 26.8 16 26.5C16 26.8 16.2 27 16.5 27C16.8 27 17 26.8 17 26.5C17.4 23.4 19.7 23.5 20 23.6C20 23.6 20 23.6 20.1 23.6H31.5C31.8 23.6 32 23.4 32 23.1V22.1C32 21.8 31.7 21.6 31.4 21.6Z" fill="#4E3F3A"/>
</g>
<defs>
<clipPath id="clip0_61_3">
<rect width="170.1" height="27" fill="white"/>
</clipPath>
</defs>
</svg>
