<?xml version="1.0" encoding="utf-8"?>
<!-- Generator: Adobe Illustrator 22.1.0, SVG Export Plug-In . SVG Version: 6.00 Build 0)  -->
<svg version="1.1" id="Layer_1" xmlns="http://www.w3.org/2000/svg" xmlns:xlink="http://www.w3.org/1999/xlink" x="0px" y="0px"
	 viewBox="0 0 63.7 59" style="enable-background:new 0 0 63.7 59;" xml:space="preserve">
<style type="text/css">
	.st0{fill:#E5F3FC;}
	.st1{fill:#FDFAF9;}
	.st2{fill:#E3C7BA;}
	.st3{fill:#57453D;}
</style>
<circle class="st0" cx="599.1" cy="-358.9" r="28"/>
<circle class="st1" cx="593.6" cy="-274.9" r="28"/>
<path class="st2" d="M51.1,20.7c0-0.4,0.1-0.8,0.1-1.3c0-6.6-5.8-12-12.9-12c-3.6,0-6.9,1.4-9.3,3.6c-0.9-0.2-1.8-0.4-2.7-0.4
	c-4.3,0-8,2.8-9.7,6.7c-6.1,1.7-10.5,6.1-10.5,11.4c0,6.7,7.1,12.1,15.8,12.1c1.5,0,3-0.2,4.4-0.5c2.7,0.6,5.6,1,8.6,1
	c12.3,0,22.3-5.5,22.3-12.2C57.2,25.9,54.9,22.9,51.1,20.7z M41.8,22.7l-3.5,3.4c-0.3,0.3-0.5,0.8-0.4,1.3l0.8,4.8
	c0.2,1.2-1,2.1-2.1,1.5l-4.3-2.3c-0.4-0.2-0.9-0.2-1.3,0l-4.3,2.3c-1.1,0.6-2.3-0.3-2.1-1.5l0.8-4.8c0.1-0.5-0.1-0.9-0.4-1.3
	l-3.5-3.4c-0.9-0.8-0.4-2.3,0.8-2.5l4.8-0.7c0.5-0.1,0.9-0.4,1.1-0.8l2.1-4.3c0.5-1.1,2.1-1.1,2.6,0l2.1,4.3
	c0.2,0.4,0.6,0.7,1.1,0.8l4.8,0.7C42.2,20.4,42.6,21.9,41.8,22.7z"/>
<path class="st3" d="M45.3,7.3l1,2.1c0.1,0.2,0.3,0.3,0.5,0.4l2.3,0.3c0.6,0.1,0.8,0.8,0.4,1.2l-1.7,1.6c-0.2,0.2-0.2,0.4-0.2,0.6
	l0.4,2.3c0.1,0.6-0.5,1-1,0.7L45,15.5c-0.2-0.1-0.4-0.1-0.6,0l-2.1,1.1c-0.5,0.3-1.1-0.2-1-0.7l0.4-2.3c0-0.2,0-0.5-0.2-0.6
	l-1.7-1.6c-0.4-0.4-0.2-1.1,0.4-1.2l2.3-0.3c0.2,0,0.4-0.2,0.5-0.4l1-2.1C44.3,6.8,45,6.8,45.3,7.3z"/>
<path class="st3" d="M14.5,15.3l1,2.1c0.1,0.2,0.3,0.3,0.5,0.4l2.3,0.3c0.6,0.1,0.8,0.8,0.4,1.2l-1.7,1.6c-0.2,0.2-0.2,0.4-0.2,0.6
	l0.4,2.3c0.1,0.6-0.5,1-1,0.7l-2.1-1.1c-0.2-0.1-0.4-0.1-0.6,0l-2.1,1.1c-0.5,0.3-1.1-0.2-1-0.7l0.4-2.3c0-0.2,0-0.5-0.2-0.6L9,19.3
	c-0.4-0.4-0.2-1.1,0.4-1.2l2.3-0.3c0.2,0,0.4-0.2,0.5-0.4l1-2.1C13.5,14.8,14.3,14.8,14.5,15.3z"/>
<path class="st3" d="M59.4,44.1h-0.7c-0.5,0-0.9-0.4-0.9-0.9v-3.9c0-0.5-0.4-0.9-0.9-0.9H37.4c-1.4,0.1-3,1.9-3.9,3.2v-0.4
	c0-1.8,1.3-3.3,3-3.5l0,0l20.6-6.3c0.3-0.1,0.4-0.4,0.4-0.7c-0.1-0.3-0.4-0.4-0.7-0.4l-20.5,6.3c-1.5,0.2-2.7,1.2-3.3,2.4
	c-0.7-1.3-1.9-2.2-3.4-2.4L8.5,35.8c0,0,0,0,0,0c-0.3,0-0.5,0.2-0.5,0.5c0,0.3,0.2,0.5,0.5,0.6l21,0.7c1.7,0.3,3,1.8,3,3.5v1
	c-0.8-1.1-2.6-3.6-4.2-3.7H8.6c-0.5,0-0.9,0.4-0.9,0.9v3.9c0,0.5-0.4,0.9-0.9,0.9H6.2c-0.5,0-0.9,0.4-0.9,0.9v1.7
	c0,0.5,0.4,0.9,0.9,0.9h19.6c0,0,0.1,0,0.1,0c0.5-0.1,4.4-0.4,5.1,5c0.1,0.4,0.4,0.8,0.9,0.8h0c0.5,0,0.9-0.4,0.9-0.9
	c0,0.5,0.4,0.9,0.9,0.9h0c0.4,0,0.8-0.3,0.9-0.8c0.7-5.4,4.7-5.1,5.1-5c0,0,0.1,0,0.1,0h19.6c0.5,0,0.9-0.4,0.9-0.9V45
	C60.3,44.5,59.9,44.1,59.4,44.1z"/>
</svg>
